<svg width="23" height="23" viewBox="0 0 23 23" fill="none" xmlns="http://www.w3.org/2000/svg">
<path d="M22.5 11.0396V22.08C22.5 22.324 22.4034 22.558 22.2315 22.7305C22.0596 22.9031 21.8264 23 21.5833 23H15.1667C14.9236 23 14.6904 22.9031 14.5185 22.7305C14.3466 22.558 14.25 22.324 14.25 22.08V16.0997C14.25 15.9777 14.2017 15.8607 14.1158 15.7745C14.0298 15.6882 13.9132 15.6397 13.7917 15.6397H9.20833C9.08678 15.6397 8.9702 15.6882 8.88424 15.7745C8.79829 15.8607 8.75 15.9777 8.75 16.0997V22.08C8.75 22.324 8.65342 22.558 8.48151 22.7305C8.30961 22.9031 8.07645 23 7.83333 23H1.41667C1.17355 23 0.940394 22.9031 0.768486 22.7305C0.596577 22.558 0.5 22.324 0.5 22.08V11.0396C0.500225 10.5516 0.693527 10.0838 1.0374 9.73886L10.2041 0.538517C10.5478 0.193698 11.014 0 11.5 0C11.986 0 12.4522 0.193698 12.7959 0.538517L21.9626 9.73886C22.3065 10.0838 22.4998 10.5516 22.5 11.0396Z" fill="white"/>
</svg>
