<svg width="17" height="16" viewBox="0 0 17 16" fill="none" xmlns="http://www.w3.org/2000/svg">
<g clip-path="url(#clip0_1_4693)">
<path d="M16.3533 5.76333L12.6773 2.08733C12.5843 1.99433 12.4587 1.94183 12.3278 1.94083L4.73825 1.88283C4.60425 1.88183 4.47575 1.93433 4.38075 2.02933L0.64625 5.76383C0.45125 5.95933 0.45125 6.27533 0.64625 6.47083L8.14625 13.9708C8.34175 14.1663 8.65825 14.1663 8.85325 13.9708L16.3533 6.47083C16.5487 6.27533 16.5487 5.95883 16.3533 5.76333ZM13.4533 6.47433L9.87725 10.0858C9.68275 10.2823 9.36625 10.2838 9.16975 10.0893C8.97325 9.89483 8.97175 9.57833 9.16625 9.38183L12.4038 6.11333L11.3098 4.94733C11.1183 4.74883 11.1243 4.43183 11.3233 4.24033C11.4203 4.14633 11.5513 4.09683 11.6858 4.10083C11.8208 4.10483 11.9483 4.16333 12.0393 4.26283L13.4633 5.78133C13.6462 5.97733 13.6423 6.28333 13.4533 6.47433Z" fill="url(#paint0_linear_1_4693)"/>
</g>
<defs>
<linearGradient id="paint0_linear_1_4693" x1="0.5" y1="8.00013" x2="9.45515" y2="8.00013" gradientUnits="userSpaceOnUse">
<stop stop-color="#F9D98E"/>
<stop offset="1" stop-color="#D0B067"/>
</linearGradient>
<clipPath id="clip0_1_4693">
<rect width="16" height="16" fill="white" transform="translate(0.5)"/>
</clipPath>
</defs>
</svg>
